<svg width="48" height="48" viewBox="0 0 48 48" fill="none" xmlns="http://www.w3.org/2000/svg">
<g clip-path="url(#clip0)">
<path d="M34.8931 16.655C33.7776 16.2129 32.5985 15.9911 31.4112 15.9999C27.5718 15.9999 24.8602 18.1036 24.841 21.1235C24.817 23.3421 26.7679 24.5923 28.2437 25.3335C29.7579 26.0957 30.2642 26.5759 30.2594 27.2572C30.2498 28.2934 29.05 28.7632 27.9341 28.7632C26.4008 28.7632 25.5633 28.5309 24.2747 27.9488L23.7972 27.7061L23.2525 31.1827C24.1859 31.6055 25.8681 31.9683 27.6054 31.9997C31.6872 31.9997 34.3556 29.909 34.3868 26.696C34.4204 24.9238 33.3645 23.5848 31.1425 22.4781C29.7915 21.7603 28.954 21.2801 28.954 20.5519C28.954 19.9072 29.6715 19.2181 31.1713 19.2181C32.1694 19.1919 33.1614 19.3956 34.082 19.8158L34.442 19.9907L34.9867 16.6316L34.8931 16.655ZM44.8564 16.2818H41.8569C40.9234 16.2818 40.2203 16.5611 39.8124 17.5686L34.0436 31.783H38.1254L38.9413 29.4522L43.923 29.4575C44.0405 30.003 44.4005 31.783 44.4005 31.783H47.9999L44.8564 16.2818ZM19.3194 16.1513H23.2093L20.776 31.6604H16.891L19.3194 16.1461V16.1513ZM9.44492 24.6993L9.84806 26.8526L13.6491 16.2818H17.7693L11.6478 31.7621H7.53721L4.17771 18.6544C4.1233 18.4382 3.99552 18.2526 3.82017 18.135C2.60931 17.4546 1.32633 16.9383 -6.10352e-05 16.5976L0.0527309 16.2714H6.31339C7.16286 16.3079 7.84676 16.5976 8.07473 17.5842L9.44252 24.7071V24.6993H9.44492ZM40.0571 26.281L41.6073 21.9431C41.5881 21.99 41.9265 21.0478 42.1232 20.4658L42.3896 21.8047L43.2894 26.2784H40.0547V26.281H40.0571Z" fill="#E0E0E0"/>
</g>
<defs>
<clipPath id="clip0">
<rect width="48" height="48" fill="white"/>
</clipPath>
</defs>
</svg>
